<?xml version="1.0" encoding="UTF-8"?>
<svg width="443px" height="321px" viewBox="0 0 443 321" version="1.1" xmlns="http://www.w3.org/2000/svg" xmlns:xlink="http://www.w3.org/1999/xlink">
    <!-- Generator: Sketch 58 (84663) - https://sketch.com -->
    <title>no-media</title>
    <desc>Created with Sketch.</desc>
    <g id="no-media" stroke="none" stroke-width="1" fill="none" fill-rule="evenodd">
        <g id="video-collection" transform="translate(0.536144, 0.428743)" fill-rule="nonzero">
            <path d="M212.8,285.9 L210.8,285.9 L210.8,283.9 L212.8,283.9 L212.8,285.9 Z M216.9,285.8 L216.9,283.8 C217.6,283.8 218.2,283.8 218.9,283.8 L218.9,285.8 C218.2,285.8 217.5,285.8 216.9,285.8 Z M206.8,285.8 C206.1,285.8 205.5,285.8 204.8,285.8 L204.9,283.8 C205.6,283.8 206.2,283.8 206.9,283.8 L206.8,285.8 Z M222.9,285.7 L222.8,283.7 C223.5,283.7 224.1,283.6 224.8,283.6 L224.9,285.6 C224.2,285.6 223.5,285.6 222.9,285.7 Z M200.8,285.6 C200.1,285.6 199.5,285.5 198.8,285.5 L198.9,283.5 C199.6,283.5 200.2,283.6 200.9,283.6 L200.8,285.6 Z M228.9,285.4 L228.8,283.4 C229.5,283.4 230.1,283.3 230.8,283.3 L230.9,285.3 C230.2,285.3 229.5,285.3 228.9,285.4 Z M194.8,285.3 C194.1,285.3 193.5,285.2 192.8,285.2 L192.9,283.2 C193.6,283.2 194.2,283.3 194.9,283.3 L194.8,285.3 Z M234.9,284.9 L234.7,282.9 C235.4,282.8 236,282.8 236.7,282.7 L236.9,284.7 C236.2,284.8 235.6,284.9 234.9,284.9 Z M188.8,284.8 C188.1,284.7 187.5,284.7 186.8,284.6 L187,282.6 C187.7,282.7 188.3,282.7 189,282.8 L188.8,284.8 Z M240.9,284.4 L240.7,282.4 C241.4,282.3 242,282.3 242.7,282.2 L242.9,284.2 C242.2,284.2 241.5,284.3 240.9,284.4 Z M182.8,284.3 C182.1,284.2 181.5,284.2 180.8,284.1 L181,282.1 C181.7,282.2 182.3,282.3 183,282.3 L182.8,284.3 Z M246.9,283.7 L246.6,281.7 C247.3,281.6 247.9,281.5 248.6,281.4 L248.9,283.4 C248.2,283.5 247.5,283.6 246.9,283.7 Z M176.8,283.5 C176.1,283.4 175.5,283.3 174.8,283.2 L175.1,281.2 C175.8,281.3 176.4,281.4 177.1,281.5 L176.8,283.5 Z M252.8,282.8 L252.5,280.8 C253.2,280.7 253.8,280.6 254.5,280.5 L254.8,282.5 C254.2,282.6 253.5,282.7 252.8,282.8 Z M170.8,282.7 C170.1,282.6 169.5,282.5 168.8,282.4 L169.1,280.4 C169.8,280.5 170.4,280.6 171.1,280.7 L170.8,282.7 Z M258.8,281.8 L258.5,279.8 C259.2,279.7 259.8,279.6 260.5,279.4 L260.9,281.4 C260.1,281.6 259.4,281.7 258.8,281.8 Z M164.9,281.7 C164.2,281.6 163.6,281.5 162.9,281.3 L163.3,279.3 C164,279.4 164.6,279.5 165.3,279.7 L164.9,281.7 Z M264.7,280.7 L264.3,278.7 C265,278.6 265.6,278.4 266.3,278.3 L266.7,280.3 C266,280.5 265.3,280.6 264.7,280.7 Z M159,280.5 C158.3,280.4 157.7,280.2 157,280.1 L157.4,278.1 C158,278.2 158.7,278.4 159.3,278.5 L159,280.5 Z M270.6,279.5 L270.2,277.6 C270.8,277.5 271.5,277.3 272.1,277.1 L272.6,279 C271.9,279.2 271.2,279.3 270.6,279.5 Z M153.1,279.2 C152.4,279 151.8,278.9 151.1,278.7 L151.6,276.8 C152.2,277 152.9,277.1 153.5,277.3 L153.1,279.2 Z M276.4,278.1 L275.9,276.2 C276.5,276 277.2,275.9 277.8,275.7 L278.3,277.6 C277.7,277.7 277.1,277.9 276.4,278.1 Z M147.2,277.8 C146.6,277.6 145.9,277.5 145.3,277.3 L145.8,275.4 C146.4,275.6 147.1,275.7 147.7,275.9 L147.2,277.8 Z M282.3,276.5 L281.8,274.6 C282.4,274.4 283.1,274.2 283.7,274.1 L284.3,276 C283.6,276.1 282.9,276.3 282.3,276.5 Z M141.4,276.2 C140.8,276 140.1,275.8 139.5,275.6 L140.1,273.7 C140.7,273.9 141.4,274.1 142,274.3 L141.4,276.2 Z M288,274.8 L287.4,272.9 C288,272.7 288.7,272.5 289.3,272.3 L289.9,274.2 C289.3,274.4 288.7,274.6 288,274.8 Z M135.7,274.5 C135.1,274.3 134.4,274.1 133.8,273.9 L134.4,272 C135,272.2 135.7,272.4 136.3,272.6 L135.7,274.5 Z M293.8,272.9 L293.2,271 C293.8,270.8 294.5,270.6 295.1,270.4 L295.8,272.3 C295,272.5 294.4,272.7 293.8,272.9 Z M129.9,272.6 C129.3,272.4 128.6,272.2 128,271.9 L128.7,270 C129.3,270.2 130,270.4 130.6,270.7 L129.9,272.6 Z M299.5,270.9 L298.8,269 C299.4,268.8 300,268.5 300.7,268.3 L301.4,270.2 C300.7,270.5 300.1,270.7 299.5,270.9 Z M124.3,270.6 C123.7,270.4 123,270.1 122.4,269.9 L123.1,268 C123.7,268.2 124.3,268.5 125,268.7 L124.3,270.6 Z M305.1,268.8 L304.4,266.9 C305,266.7 305.6,266.4 306.2,266.1 L307,267.9 C306.3,268.3 305.7,268.5 305.1,268.8 Z M118.7,268.4 C118.1,268.1 117.5,267.9 116.8,267.6 L117.6,265.8 C118.2,266.1 118.8,266.3 119.4,266.6 L118.7,268.4 Z M310.6,266.4 L309.8,264.6 C310.4,264.3 311,264.1 311.6,263.8 L312.4,265.6 C311.9,265.9 311.3,266.2 310.6,266.4 Z M113.1,266 C112.5,265.7 111.9,265.5 111.3,265.2 L112.1,263.4 C112.7,263.7 113.3,263.9 113.9,264.2 L113.1,266 Z M316.1,263.9 L315.2,262.1 C315.8,261.8 316.4,261.5 317,261.2 L317.9,263 C317.3,263.3 316.7,263.6 316.1,263.9 Z M107.6,263.5 C107,263.2 106.4,262.9 105.8,262.6 L106.7,260.8 C107.3,261.1 107.9,261.4 108.5,261.7 L107.6,263.5 Z M321.5,261.2 L320.6,259.4 C321.2,259.1 321.8,258.8 322.4,258.5 L323.3,260.3 C322.7,260.6 322.1,260.9 321.5,261.2 Z M102.2,260.8 C101.6,260.5 101,260.2 100.4,259.9 L101.3,258.1 C101.9,258.4 102.5,258.7 103.1,259 L102.2,260.8 Z M326.9,258.4 L325.9,256.7 C326.5,256.4 327.1,256.1 327.6,255.7 L328.6,257.4 C328,257.7 327.4,258.1 326.9,258.4 Z M96.9,257.9 C96.3,257.6 95.7,257.2 95.2,256.9 L96.2,255.2 C96.8,255.5 97.3,255.9 97.9,256.2 L96.9,257.9 Z M332.1,255.4 L331.1,253.7 C331.7,253.4 332.2,253 332.8,252.7 L333.9,254.4 C333.2,254.7 332.7,255 332.1,255.4 Z M91.7,254.8 C91.1,254.4 90.6,254.1 90,253.7 L91.1,252 C91.7,252.4 92.2,252.7 92.8,253 L91.7,254.8 Z M337.2,252.2 L336.1,250.5 C336.7,250.1 337.2,249.8 337.8,249.4 L338.9,251.1 C338.3,251.4 337.8,251.8 337.2,252.2 Z M86.6,251.6 C86,251.2 85.5,250.9 84.9,250.5 L86,248.8 C86.5,249.2 87.1,249.5 87.6,249.9 L86.6,251.6 Z M342.2,248.8 L341,247.2 C341.5,246.8 342.1,246.4 342.6,246 L343.8,247.6 C343.3,248 342.7,248.4 342.2,248.8 Z M81.7,248.2 C81.2,247.8 80.6,247.4 80.1,247 L81.3,245.4 C81.8,245.8 82.4,246.2 82.9,246.6 L81.7,248.2 Z M347,245.2 L345.8,243.6 C346.3,243.2 346.8,242.8 347.4,242.4 L348.6,244 C348.1,244.4 347.6,244.8 347,245.2 Z M76.8,244.5 C76.3,244.1 75.7,243.7 75.2,243.2 L76.5,241.6 C77,242 77.5,242.4 78.1,242.8 L76.8,244.5 Z M351.7,241.4 L350.4,239.9 C350.9,239.5 351.4,239 351.9,238.6 L353.2,240.1 C352.8,240.5 352.3,241 351.7,241.4 Z M72.2,240.7 C71.7,240.3 71.2,239.8 70.7,239.4 L72,237.9 C72.5,238.3 73,238.8 73.5,239.2 L72.2,240.7 Z M356.3,237.4 L354.9,235.9 C355.4,235.4 355.9,235 356.3,234.5 L357.7,235.9 C357.3,236.5 356.8,236.9 356.3,237.4 Z M67.7,236.7 C67.2,236.2 66.7,235.8 66.2,235.3 L67.6,233.9 C68.1,234.4 68.6,234.8 69,235.3 L67.7,236.7 Z M360.6,233.2 L359.2,231.8 C359.7,231.3 360.1,230.9 360.6,230.4 L362,231.8 C361.6,232.2 361.1,232.7 360.6,233.2 Z M63.4,232.4 C62.9,231.9 62.5,231.4 62,230.9 L63.5,229.5 C64,230 64.4,230.5 64.9,230.9 L63.4,232.4 Z M364.8,228.8 L363.3,227.5 C363.7,227 364.2,226.5 364.6,226 L366.1,227.3 C365.6,227.8 365.2,228.3 364.8,228.8 Z M59.3,228 C58.9,227.5 58.4,227 58,226.5 L59.5,225.2 C59.9,225.7 60.4,226.2 60.8,226.7 L59.3,228 Z M368.6,224.1 L367,222.9 C367.4,222.4 367.8,221.9 368.2,221.3 L369.8,222.5 C369.5,223.1 369.1,223.6 368.6,224.1 Z M55.4,223.3 C55,222.8 54.6,222.2 54.2,221.7 L55.8,220.5 C56.2,221 56.6,221.6 57,222.1 L55.4,223.3 Z M372.3,219.3 L370.7,218.1 C371.1,217.6 371.5,217 371.8,216.5 L373.5,217.6 C373.1,218.2 372.7,218.7 372.3,219.3 Z M51.8,218.4 C51.4,217.8 51,217.3 50.7,216.7 L52.4,215.6 C52.8,216.1 53.1,216.7 53.5,217.2 L51.8,218.4 Z M375.6,214.2 L373.9,213.2 C374.2,212.6 374.6,212.1 374.9,211.5 L376.6,212.5 C376.3,213.1 376,213.7 375.6,214.2 Z M48.5,213.3 C48.2,212.7 47.8,212.1 47.5,211.6 L49.2,210.6 C49.5,211.2 49.9,211.7 50.2,212.3 L48.5,213.3 Z M378.6,209 L376.8,208.1 C377.1,207.5 377.4,206.9 377.7,206.3 L379.5,207.2 C379.2,207.8 378.9,208.4 378.6,209 Z M45.6,208 C45.3,207.4 45,206.8 44.7,206.2 L46.5,205.3 C46.8,205.9 47.1,206.5 47.4,207.1 L45.6,208 Z M381.3,203.5 L379.5,202.7 C379.8,202.1 380,201.5 380.3,200.9 L382.1,201.7 C381.8,202.3 381.5,202.9 381.3,203.5 Z M43,202.6 C42.7,202 42.5,201.4 42.2,200.7 L44.1,200 C44.3,200.6 44.6,201.2 44.9,201.8 L43,202.6 Z M383.5,197.9 L381.6,197.2 C381.8,196.6 382,196 382.2,195.3 L384.1,195.9 C384,196.6 383.7,197.2 383.5,197.9 Z M40.8,196.9 C40.6,196.3 40.4,195.6 40.2,195 L42.1,194.4 C42.3,195 42.5,195.7 42.7,196.3 L40.8,196.9 Z M385.3,192.1 L383.4,191.6 C383.6,191 383.7,190.3 383.9,189.7 L385.8,190.2 C385.7,190.8 385.5,191.4 385.3,192.1 Z M39.1,191.1 C38.9,190.4 38.8,189.8 38.6,189.1 L40.5,188.6 C40.6,189.2 40.8,189.9 41,190.5 L39.1,191.1 Z M386.7,186.2 L384.7,185.8 C384.8,185.2 384.9,184.5 385,183.9 L387,184.2 C387,184.9 386.8,185.5 386.7,186.2 Z M37.8,185.2 C37.7,184.5 37.6,183.9 37.5,183.2 L39.5,182.9 C39.6,183.6 39.7,184.2 39.8,184.8 L37.8,185.2 Z M387.6,180.2 L385.6,180 C385.7,179.3 385.7,178.7 385.8,178 L387.8,178.2 C387.7,178.8 387.7,179.5 387.6,180.2 Z M37,179.1 C36.9,178.4 36.9,177.8 36.8,177.1 L38.8,177 C38.8,177.7 38.9,178.3 39,179 L37,179.1 Z M388,174.1 L386,174 C386,173.3 386,172.7 386,172 C386,171.4 386,170.7 386,170.1 L388,170 C388,170.6 388,171.3 388,172 C388,172.8 388,173.4 388,174.1 Z M36.7,173.1 C36.7,172.8 36.7,172.4 36.7,172.1 C36.7,171.8 36.7,171.4 36.7,171.1 L38.7,171.1 C38.7,171.4 38.7,171.8 38.7,172.1 C38.7,172.4 38.7,172.7 38.7,173.1 L36.7,173.1 Z M38.8,167.1 L36.8,167 C36.8,166.3 36.9,165.6 37,165 L39,165.2 C38.9,165.8 38.9,166.5 38.8,167.1 Z M385.8,166.3 C385.7,165.6 385.7,165 385.6,164.3 L387.6,164.1 C387.7,164.8 387.7,165.4 387.8,166.1 L385.8,166.3 Z M39.5,161.2 L37.5,160.9 C37.6,160.2 37.7,159.6 37.8,158.9 L39.8,159.2 C39.7,159.9 39.6,160.6 39.5,161.2 Z M385.1,160.4 C385,159.8 384.9,159.1 384.8,158.5 L386.8,158.1 C386.9,158.8 387,159.4 387.2,160.1 L385.1,160.4 Z M40.6,155.4 L38.7,154.9 C38.9,154.2 39,153.6 39.2,152.9 L41.1,153.4 C40.9,154.2 40.7,154.8 40.6,155.4 Z M383.9,154.6 C383.7,154 383.6,153.3 383.4,152.7 L385.3,152.2 C385.5,152.9 385.6,153.5 385.8,154.2 L383.9,154.6 Z M42.1,149.7 L40.2,149.1 C40.4,148.5 40.6,147.8 40.8,147.2 L42.7,147.9 C42.5,148.5 42.3,149.1 42.1,149.7 Z M382.3,148.9 C382.1,148.3 381.9,147.6 381.7,147 L383.6,146.3 C383.8,146.9 384,147.6 384.3,148.2 L382.3,148.9 Z M44.1,144.2 L42.2,143.5 C42.5,142.9 42.7,142.3 43,141.6 L44.8,142.4 C44.6,143 44.4,143.6 44.1,144.2 Z M380.2,143.4 C379.9,142.8 379.7,142.2 379.4,141.6 L381.2,140.8 C381.5,141.4 381.7,142 382,142.7 L380.2,143.4 Z M46.5,138.8 L44.7,137.9 C45,137.3 45.3,136.7 45.6,136.1 L47.4,137 C47.1,137.6 46.8,138.2 46.5,138.8 Z M377.8,138 C377.5,137.4 377.2,136.8 376.9,136.2 L378.7,135.3 C379,135.9 379.3,136.5 379.6,137.1 L377.8,138 Z M49.3,133.5 L47.6,132.5 C47.9,131.9 48.3,131.3 48.6,130.8 L50.3,131.8 C49.9,132.4 49.6,132.9 49.3,133.5 Z M375,132.7 C374.7,132.1 374.3,131.6 374,131 L375.7,130 C376.1,130.6 376.4,131.2 376.7,131.7 L375,132.7 Z M52.4,128.5 L50.7,127.4 C51.1,126.8 51.4,126.3 51.8,125.7 L53.4,126.8 C53.1,127.4 52.8,127.9 52.4,128.5 Z M371.8,127.7 C371.4,127.2 371.1,126.6 370.7,126.1 L372.3,124.9 C372.7,125.5 373.1,126 373.4,126.6 L371.8,127.7 Z M55.8,123.6 L54.2,122.4 C54.6,121.9 55,121.3 55.4,120.8 L57,122 C56.6,122.6 56.2,123.1 55.8,123.6 Z M368.3,122.9 C367.9,122.4 367.5,121.9 367.1,121.3 L368.7,120.1 C369.1,120.6 369.5,121.2 369.9,121.7 L368.3,122.9 Z M59.5,119 L58,117.7 C58.4,117.2 58.9,116.7 59.3,116.2 L60.8,117.5 C60.4,118 59.9,118.5 59.5,119 Z M364.6,118.3 C364.2,117.8 363.7,117.3 363.3,116.8 L364.8,115.5 C365.2,116 365.7,116.5 366.1,117 L364.6,118.3 Z M63.5,114.5 L62,113.1 C62.5,112.6 62.9,112.1 63.4,111.6 L64.8,113 C64.4,113.6 63.9,114 63.5,114.5 Z M360.6,113.9 C360.1,113.4 359.7,112.9 359.2,112.5 L360.6,111.1 C361.1,111.6 361.5,112.1 362,112.6 L360.6,113.9 Z M67.6,110.3 L66.2,108.9 C66.7,108.4 67.2,108 67.7,107.5 L69.1,109 C68.6,109.4 68.1,109.8 67.6,110.3 Z M356.4,109.7 C355.9,109.2 355.4,108.8 355,108.3 L356.4,106.8 C356.9,107.3 357.4,107.7 357.9,108.2 L356.4,109.7 Z M72,106.2 L70.7,104.7 C71.2,104.3 71.7,103.8 72.2,103.4 L73.5,104.9 C73,105.4 72.5,105.8 72,106.2 Z M352,105.7 C351.5,105.3 351,104.8 350.5,104.4 L351.8,102.9 C352.3,103.3 352.8,103.8 353.3,104.2 L352,105.7 Z M76.6,102.4 L75.3,100.8 C75.8,100.4 76.3,100 76.9,99.5 L78.1,101.1 C77.6,101.6 77.1,102 76.6,102.4 Z M347.4,101.9 C346.9,101.5 346.4,101.1 345.8,100.7 L347,99.1 C347.5,99.5 348.1,99.9 348.6,100.3 L347.4,101.9 Z M81.3,98.8 L80.1,97.2 C80.6,96.8 81.2,96.4 81.7,96 L82.9,97.6 C82.4,98 81.8,98.4 81.3,98.8 Z M342.7,98.2 C342.2,97.8 341.6,97.4 341.1,97 L342.3,95.4 C342.8,95.8 343.4,96.2 343.9,96.6 L342.7,98.2 Z M86.2,95.3 L85,93.7 C85.6,93.3 86.1,92.9 86.7,92.6 L87.8,94.3 C87.2,94.6 86.7,94.9 86.2,95.3 Z M337.8,94.8 C337.3,94.4 336.7,94.1 336.1,93.7 L337.2,92 C337.8,92.4 338.3,92.7 338.9,93.1 L337.8,94.8 Z M91.1,92.1 L90,90.4 C90.6,90 91.1,89.7 91.7,89.3 L92.7,91 C92.3,91.4 91.7,91.7 91.1,92.1 Z M332.8,91.6 C332.2,91.3 331.7,90.9 331.1,90.6 L332.1,88.9 C332.7,89.2 333.2,89.6 333.8,89.9 L332.8,91.6 Z M96.3,89 L95.3,87.3 C95.9,87 96.5,86.6 97,86.3 L98,88 C97.4,88.3 96.8,88.6 96.3,89 Z M327.7,88.5 C327.1,88.2 326.5,87.8 326,87.5 L327,85.8 C327.6,86.1 328.2,86.5 328.8,86.8 L327.7,88.5 Z M101.5,86.1 L100.6,84.3 C101.2,84 101.8,83.7 102.4,83.4 L103.3,85.2 C102.6,85.5 102.1,85.8 101.5,86.1 Z M322.4,85.7 C321.8,85.4 321.2,85.1 320.6,84.8 L321.5,83 C322.1,83.3 322.7,83.6 323.3,83.9 L322.4,85.7 Z M106.8,83.4 L105.9,81.6 C106.5,81.3 107.1,81 107.7,80.7 L108.6,82.5 C108,82.8 107.4,83.1 106.8,83.4 Z M317.1,83 C316.5,82.7 315.9,82.4 315.3,82.1 L316.2,80.3 C316.8,80.6 317.4,80.9 318,81.2 L317.1,83 Z M112.2,80.8 L111.4,79 C112,78.7 112.6,78.4 113.2,78.2 L114,80 C113.4,80.2 112.8,80.5 112.2,80.8 Z M311.7,80.4 C311.1,80.1 310.5,79.9 309.9,79.6 L310.7,77.8 C311.3,78.1 311.9,78.3 312.5,78.6 L311.7,80.4 Z M117.6,78.4 L116.8,76.6 C117.4,76.3 118,76.1 118.7,75.8 L119.5,77.7 C118.9,77.9 118.2,78.1 117.6,78.4 Z M306.2,78.1 C305.6,77.8 305,77.6 304.4,77.3 L305.1,75.4 C305.7,75.7 306.3,75.9 307,76.2 L306.2,78.1 Z M123.2,76.2 L122.5,74.3 C123.1,74.1 123.7,73.8 124.4,73.6 L125.1,75.5 C124.4,75.7 123.8,75.9 123.2,76.2 Z M300.7,75.9 C300.1,75.7 299.5,75.4 298.8,75.2 L299.5,73.3 C300.1,73.5 300.8,73.8 301.4,74 L300.7,75.9 Z M128.8,74.1 L128.1,72.2 C128.7,72 129.4,71.8 130,71.5 L130.6,73.4 C130,73.7 129.4,73.9 128.8,74.1 Z M295.1,73.8 C294.5,73.6 293.8,73.4 293.2,73.2 L293.8,71.3 C294.4,71.5 295.1,71.7 295.7,72 L295.1,73.8 Z M134.4,72.2 L133.8,70.3 C134.4,70.1 135.1,69.9 135.7,69.7 L136.3,71.6 C135.7,71.8 135.1,72 134.4,72.2 Z M289.4,71.9 C288.8,71.7 288.1,71.5 287.5,71.3 L288.1,69.4 C288.7,69.6 289.4,69.8 290,70 L289.4,71.9 Z M140.1,70.4 L139.5,68.5 C140.1,68.3 140.8,68.1 141.4,67.9 L141.9,69.8 C141.4,70 140.8,70.2 140.1,70.4 Z M283.7,70.2 C283.1,70 282.4,69.8 281.8,69.7 L282.3,67.8 C282.9,68 283.6,68.2 284.2,68.4 L283.7,70.2 Z M145.9,68.8 L145.4,66.9 C146,66.7 146.7,66.6 147.3,66.4 L147.8,68.3 C147.2,68.5 146.5,68.6 145.9,68.8 Z M277.9,68.6 C277.3,68.4 276.6,68.3 276,68.1 L276.5,66.2 C277.2,66.4 277.8,66.5 278.4,66.7 L277.9,68.6 Z M151.7,67.3 L151.2,65.4 C151.8,65.2 152.5,65.1 153.2,64.9 L153.7,66.8 C153,67 152.3,67.2 151.7,67.3 Z M272.1,67.1 C271.5,66.9 270.8,66.8 270.2,66.7 L270.6,64.7 C271.3,64.8 271.9,65 272.6,65.2 L272.1,67.1 Z M157.5,66 L157.1,64 C157.8,63.9 158.4,63.7 159.1,63.6 L159.5,65.6 C158.8,65.7 158.2,65.9 157.5,66 Z M266.3,65.8 C265.7,65.7 265,65.5 264.3,65.4 L264.7,63.4 C265.4,63.5 266,63.7 266.7,63.8 L266.3,65.8 Z M163.4,64.8 L163,62.8 C163.7,62.7 164.3,62.6 165,62.4 L165.4,64.4 C164.7,64.6 164,64.7 163.4,64.8 Z M260.5,64.7 C259.8,64.6 259.2,64.5 258.5,64.3 L258.8,62.3 C259.5,62.4 260.1,62.5 260.8,62.7 L260.5,64.7 Z M169.3,63.8 L169,61.8 C169.7,61.7 170.3,61.6 171,61.5 L171.3,63.5 C170.6,63.6 169.9,63.7 169.3,63.8 Z M254.6,63.7 C253.9,63.6 253.3,63.5 252.6,63.4 L252.9,61.4 C253.6,61.5 254.2,61.6 254.9,61.7 L254.6,63.7 Z M175.2,62.9 L174.9,60.9 C175.6,60.8 176.2,60.7 176.9,60.6 L177.2,62.6 C176.5,62.7 175.8,62.8 175.2,62.9 Z M248.7,62.8 C248,62.7 247.4,62.6 246.7,62.5 L247,60.5 C247.7,60.6 248.3,60.7 249,60.8 L248.7,62.8 Z M181.1,62.1 L180.9,60.1 C181.6,60 182.2,59.9 182.9,59.9 L183.1,61.9 C182.4,62 181.8,62.1 181.1,62.1 Z M242.7,62 C242,61.9 241.4,61.9 240.7,61.8 L240.9,59.8 C241.6,59.9 242.2,59.9 242.9,60 L242.7,62 Z M187,61.5 L186.8,59.5 C187.5,59.4 188.1,59.4 188.8,59.3 L189,61.3 C188.4,61.4 187.7,61.4 187,61.5 Z M236.8,61.4 C236.1,61.3 235.5,61.3 234.8,61.2 L235,59.2 C235.7,59.3 236.3,59.3 237,59.4 L236.8,61.4 Z M193,61 L192.9,59 C193.6,59 194.2,58.9 194.9,58.9 L195,60.9 C194.3,60.9 193.7,61 193,61 Z M230.8,60.9 C230.1,60.9 229.5,60.8 228.8,60.8 L228.9,58.8 C229.6,58.8 230.2,58.9 230.9,58.9 L230.8,60.9 Z M199,60.7 L198.9,58.7 C199.6,58.7 200.2,58.6 200.9,58.6 L201,60.6 C200.3,60.6 199.6,60.6 199,60.7 Z M224.8,60.6 C224.1,60.6 223.5,60.5 222.8,60.5 L222.9,58.5 C223.6,58.5 224.2,58.6 224.9,58.6 L224.8,60.6 Z M204.9,60.4 L204.8,58.4 C205.5,58.4 206.1,58.4 206.8,58.4 L206.8,60.4 C206.3,60.4 205.6,60.4 204.9,60.4 Z M218.9,60.4 C218.2,60.4 217.6,60.4 216.9,60.4 L216.9,58.4 C217.6,58.4 218.2,58.4 218.9,58.4 L218.9,60.4 Z M210.9,60.3 L210.9,58.3 L212.4,58.3 L213,58.3 L213,60.3 L212.5,60.3 L210.9,60.3 Z" id="Shape" fill="#7F8C97"></path>
            <g id="Group" transform="translate(0.000000, 134.000000)">
                <g>
                    <path d="M109.3,73.3 L29.2,98.7 C25,100 20.5,97.7 19.2,93.5 L1.4,37.2 C0.1,33 2.4,28.5 6.6,27.2 L86.7,1.8 C90.9,0.5 95.4,2.8 96.7,7 L114.5,63.2 C115.9,67.5 113.6,72 109.3,73.3 Z" id="Path" fill="#B3E0F7"></path>
                    <path d="M26.8,100.1 C23,100.1 19.4,97.6 18.2,93.8 L0.5,37.5 C-1,32.8 1.6,27.7 6.4,26.2 L86.5,0.8 C88.8,0.1 91.2,0.3 93.4,1.4 C95.5,2.5 97.1,4.4 97.8,6.7 L115.6,62.9 C116.3,65.2 116.1,67.6 115,69.8 C113.9,72 112,73.5 109.7,74.2 L29.6,99.6 C28.7,99.9 27.7,100.1 26.8,100.1 Z M89.1,2.5 C88.4,2.5 87.7,2.6 87,2.8 L6.9,28.1 C3.2,29.3 1.2,33.2 2.3,36.9 L20.1,93.1 C20.7,94.9 21.9,96.3 23.5,97.2 C25.2,98.1 27.1,98.2 28.8,97.7 L108.9,72.3 C110.7,71.7 112.1,70.5 113,68.9 C113.9,67.3 114,65.3 113.5,63.6 L95.7,7.4 C94.8,4.4 92.1,2.5 89.1,2.5 Z" id="Shape" fill="#243038"></path>
                </g>
                <g transform="translate(46.000000, 38.000000)">
                    <path d="M7.4,20.9 L2,4 C1.5,2.5 2.9,1.1 4.4,1.5 L21.7,6.2 C22.4,6.4 22.7,7.2 22.2,7.8 L10.7,21.6 C9.8,22.8 7.8,22.4 7.4,20.9 Z" id="Path" fill="#FFFFFF"></path>
                    <path d="M9.3,23.3 C9.1,23.3 8.9,23.3 8.7,23.2 C7.6,23 6.8,22.2 6.4,21.2 L6.4,21.2 L1.1,4.3 C0.8,3.2 1,2.1 1.8,1.3 C2.6,0.5 3.7,0.2 4.7,0.5 L22,5.2 C22.7,5.4 23.2,5.9 23.4,6.5 C23.6,7.2 23.5,7.9 23,8.4 L11.5,22.2 C11,22.9 10.2,23.3 9.3,23.3 Z M8.3,20.6 C8.5,21.1 8.9,21.2 9.1,21.3 C9.3,21.3 9.7,21.4 10.1,21 L21.6,7.2 L4.3,2.5 C3.8,2.4 3.4,2.6 3.3,2.8 C3.2,2.9 2.9,3.3 3.1,3.8 L8.3,20.6 Z" id="Shape" fill="#243038"></path>
                </g>
                <path d="M28.1,90.1 C27.5,90.1 26.9,89.7 26.7,89.1 C26.5,88.3 26.9,87.5 27.7,87.2 L102.1,63.7 C102.9,63.4 103.7,63.9 104,64.7 C104.2,65.5 103.8,66.3 103,66.6 L28.6,90 C28.4,90 28.3,90.1 28.1,90.1 Z" id="Path" fill="#243038"></path>
                <g transform="translate(41.000000, 76.000000)">
                    <circle id="Oval" fill="#C0C7CC" cx="6.4" cy="6.5" r="5"></circle>
                    <path d="M6.4,12.5 C5.5,12.5 4.5,12.3 3.6,11.8 C2.2,11.1 1.1,9.8 0.6,8.3 C-0.4,5.1 1.4,1.8 4.5,0.8 C7.7,-0.2 11,1.6 12,4.7 L12,4.7 C12.5,6.2 12.3,7.9 11.6,9.3 C10.9,10.7 9.6,11.8 8.1,12.3 C7.6,12.4 7,12.5 6.4,12.5 Z M6.4,2.5 C6,2.5 5.6,2.6 5.2,2.7 C3.1,3.4 1.9,5.6 2.6,7.7 C2.9,8.7 3.6,9.6 4.6,10 C5.5,10.5 6.6,10.6 7.6,10.3 C8.6,10 9.5,9.3 9.9,8.3 C10.3,7.3 10.5,6.3 10.2,5.3 L10.2,5.3 C9.6,3.6 8.1,2.5 6.4,2.5 Z" id="Shape" fill="#243038"></path>
                </g>
            </g>
            <g id="Group" transform="translate(151.000000, 0.000000)">
                <g transform="translate(17.000000, 42.000000)">
                    <path d="M110.8,55.1 L35,95.7 C31.6,97.5 27.3,96.2 25.5,92.8 L1.9,48.7 L90,1.5 L113.6,45.6 C115.4,49 114.2,53.3 110.8,55.1 Z" id="Path" fill="#ECEEEF"></path>
                    <path d="M31.6,97.5 C28.7,97.5 26,96 24.5,93.3 L0.4,48.3 L90.3,0.2 L114.4,45.2 C115.4,47.1 115.6,49.2 115,51.3 C114.4,53.3 113,55 111.1,56 L111.1,56 L35.3,96.6 C34.2,97.2 32.9,97.5 31.6,97.5 Z M3.2,49.2 L26.3,92.4 C27.9,95.3 31.5,96.4 34.4,94.9 L110.2,54.3 C111.6,53.5 112.6,52.3 113.1,50.7 C113.6,49.2 113.4,47.5 112.6,46.1 L89.5,2.9 L3.2,49.2 Z" id="Shape" fill="#243038"></path>
                </g>
                <g>
                    <g>
                        <rect id="Rectangle" fill="#ECEEEF" transform="translate(44.776630, 46.367360) rotate(133.415722) translate(-44.776630, -46.367360) " x="-5.22432624" y="34.3671305" width="100.001912" height="24.000459"></rect>
                        <path d="M19.1,92.4 L0.2,74.5 L70.3,0.4 L89.2,18.3 L19.1,92.4 Z M3.1,74.4 L19.1,89.5 L86.5,18.3 L70.5,3.2 L3.1,74.4 Z" id="Shape" fill="#243038"></path>
                    </g>
                    <g transform="translate(45.000000, 10.000000)">
                        <polygon id="Path" fill="#C0C7CC" points="15.3 2.5 36.1 1.9 42.8 8.3 35.1 16.5 1.2 17.5"></polygon>
                        <path d="M1.2,18.5 C0.8,18.5 0.4,18.3 0.3,17.9 C0.1,17.5 0.2,17.1 0.5,16.8 L14.7,1.8 C14.9,1.6 15.1,1.5 15.4,1.5 L36.1,0.9 C36.4,0.9 36.6,1 36.8,1.2 L43.6,7.6 C44,8 44,8.6 43.6,9 L35.9,17.2 C35.7,17.4 35.5,17.5 35.2,17.5 L1.2,18.5 C1.2,18.5 1.2,18.5 1.2,18.5 Z M15.7,3.5 L3.5,16.4 L34.6,15.5 L41.4,8.3 L35.7,2.9 L15.7,3.5 Z" id="Shape" fill="#243038"></path>
                    </g>
                    <g transform="translate(16.000000, 40.000000)">
                        <polygon id="Path" fill="#C0C7CC" points="49.9 1.5 16 2.4 1.8 17.4 35.8 16.4"></polygon>
                        <path d="M1.8,18.4 C1.4,18.4 1,18.2 0.9,17.8 C0.7,17.4 0.8,17 1.1,16.7 L15.3,1.7 C15.5,1.5 15.7,1.4 16,1.4 L49.9,0.5 C50.3,0.5 50.7,0.7 50.8,1.1 C51,1.5 50.9,1.9 50.6,2.2 L36.4,17.2 C36.2,17.4 36,17.5 35.7,17.5 L1.8,18.4 C1.9,18.4 1.9,18.4 1.8,18.4 Z M16.4,3.4 L4.2,16.3 L35.3,15.4 L47.5,2.5 L16.4,3.4 Z" id="Shape" fill="#243038"></path>
                    </g>
                    <g transform="translate(0.000000, 70.000000)">
                        <polygon id="Path" fill="#C0C7CC" points="37.6 1.4 3.7 2.3 1.7 4.5 14.5 16.6 23.5 16.4"></polygon>
                        <path d="M14.5,17.6 C14.2,17.6 14,17.5 13.8,17.3 L1,5.2 C0.8,5 0.7,4.8 0.7,4.5 C0.7,4.2 0.8,4 1,3.8 L3,1.7 C3.2,1.5 3.4,1.4 3.7,1.4 L37.6,0.5 C38,0.5 38.4,0.7 38.5,1.1 C38.7,1.5 38.6,1.9 38.3,2.2 L24.1,17.2 C23.9,17.4 23.7,17.5 23.4,17.5 L14.5,17.6 C14.5,17.6 14.5,17.6 14.5,17.6 Z M3.1,4.4 L14.9,15.6 L23,15.4 L35.2,2.5 L4.1,3.4 L3.1,4.4 Z" id="Shape" fill="#243038"></path>
                    </g>
                </g>
                <g transform="translate(9.000000, 80.000000)">
                    <circle id="Oval" fill="#C0C7CC" cx="9.1" cy="9.2" r="8"></circle>
                    <path d="M9.1,18.3 C8.2,18.3 7.3,18.2 6.5,17.9 C4.2,17.2 2.3,15.7 1.2,13.5 C0.1,11.4 -0.2,8.9 0.5,6.6 C1.2,4.3 2.7,2.4 4.9,1.3 C9.3,-1 14.7,0.6 17.1,5 C18.2,7.1 18.5,9.6 17.8,11.9 C17.1,14.2 15.6,16.1 13.4,17.2 C12,17.9 10.5,18.3 9.1,18.3 Z M9.1,2.2 C8,2.2 6.8,2.5 5.8,3 C4.2,3.9 2.9,5.4 2.4,7.1 C1.9,8.9 2,10.8 2.9,12.4 C3.8,14 5.3,15.3 7,15.8 C8.8,16.3 10.7,16.2 12.3,15.3 C13.9,14.4 15.2,12.9 15.7,11.2 C16.2,9.4 16.1,7.5 15.2,5.9 L15.2,5.9 C14.3,4.3 12.8,3 11.1,2.5 C10.4,2.3 9.7,2.2 9.1,2.2 Z" id="Shape" fill="#243038"></path>
                </g>
                <rect id="Rectangle" fill="#C0C7CC" transform="translate(71.918440, 83.001100) rotate(-28.164160) translate(-71.918440, -83.001100) " x="31.9183888" y="77.0010923" width="80.0001024" height="12.0000154"></rect>
            </g>
            <g id="Group" transform="translate(323.000000, 124.000000)">
                <g transform="translate(81.000000, 40.000000)">
                    <path d="M29.4,21.6 C26.2,29.8 20.3,35.2 12.1,32 C3.9,28.8 -0.2,19.5 3,11.3 C6.2,3.1 15.5,-1 23.7,2.2 C32,5.4 32.6,13.4 29.4,21.6 Z" id="Path" fill="#B9D199"></path>
                    <path d="M16.8,33.9 C15.2,33.9 13.5,33.6 11.8,32.9 C7.6,31.2 4.2,28 2.4,23.9 C0.6,19.7 0.5,15.1 2.1,10.9 C3.8,6.7 7,3.3 11.1,1.5 C15.3,-0.3 19.9,-0.4 24.1,1.2 C28.2,2.8 30.9,5.8 31.8,9.7 C32.6,13.1 32.1,17.3 30.3,21.9 C28.5,26.4 26.1,29.9 23.2,31.9 C21.2,33.3 19.1,33.9 16.8,33.9 Z M17.9,2.1 C15.9,2.1 13.8,2.5 11.9,3.4 C8.2,5 5.4,7.9 3.9,11.7 C2.4,15.4 2.5,19.5 4.1,23.2 C5.7,26.9 8.6,29.7 12.4,31.2 C16,32.6 19.2,32.3 22,30.4 C24.6,28.7 26.8,25.5 28.4,21.4 C30,17.2 30.5,13.4 29.8,10.4 C29,7.1 26.9,4.7 23.3,3.3 C21.6,2.4 19.8,2.1 17.9,2.1 Z" id="Shape" fill="#243038"></path>
                </g>
                <g transform="translate(32.000000, 55.000000)">
                    <path d="M24.6,59.6 L3.4,51.3 C2,50.8 1.1,49.4 1.1,47.9 L1.7,1.7 L30.4,12.9 L29.7,56.1 C29.7,58.7 27.1,60.5 24.6,59.6 Z" id="Path" fill="#798792"></path>
                    <path d="M26,60.8 C25.4,60.8 24.8,60.7 24.3,60.5 L3.1,52.2 C1.3,51.5 0.2,49.8 0.1,47.9 L0.7,1.6 C0.7,1.3 0.9,1 1.1,0.8 C1.4,0.6 1.7,0.6 2,0.7 L30.7,11.9 C31.1,12.1 31.3,12.4 31.3,12.8 L30.6,56 C30.6,57.5 29.9,59 28.6,59.9 C27.9,60.5 26.9,60.8 26,60.8 Z M2.7,3.1 L2.1,47.9 C2.1,49 2.8,49.9 3.8,50.3 L25,58.6 L25,58.6 C25.9,58.9 26.8,58.8 27.5,58.3 C28.3,57.8 28.7,57 28.7,56 L29.3,13.5 L2.7,3.1 Z" id="Shape" fill="#243038"></path>
                </g>
                <g transform="translate(4.000000, 2.000000)">
                    <rect id="Rectangle" fill="#ECEEEF" transform="translate(17.289905, 12.770335) rotate(21.389645) translate(-17.289905, -12.770335) " x="3.49022723" y="6.6204786" width="27.5993555" height="12.2997128"></rect>
                    <path d="M28.4,24.8 L0.9,14 L6.1,0.7 L33.7,11.5 L28.4,24.8 Z M3.5,12.9 L27.3,22.2 L31.1,12.6 L7.3,3.3 L3.5,12.9 Z" id="Shape" fill="#243038"></path>
                </g>
                <g>
                    <path d="M72.7,75.1 L5.1,48.6 C1.5,47.2 0.1,42.9 2.1,39.6 L24.1,4.2 C25.7,1.7 28.8,0.6 31.6,1.7 L92.2,25.4 C95.4,26.6 96.9,30.2 95.7,33.4 L80.8,71.5 C79.5,74.8 75.9,76.3 72.7,75.1 Z" id="Path" fill="#B9D199"></path>
                    <path d="M75,76.5 C74.1,76.5 73.2,76.3 72.4,76 L4.8,49.5 C2.8,48.7 1.3,47.1 0.6,45.1 C-0.1,43.1 0.2,40.9 1.3,39.1 L23.3,3.7 C25.1,0.8 28.8,-0.4 32,0.8 L92.6,24.5 C94.4,25.2 95.8,26.5 96.5,28.3 C97.3,30.1 97.3,32 96.6,33.8 L81.6,72 C80.9,73.8 79.6,75.2 77.8,75.9 C76.9,76.3 76,76.5 75,76.5 Z M29.3,2.4 C27.6,2.4 25.9,3.3 24.9,4.8 L2.9,40.2 C2.1,41.5 1.9,43.1 2.4,44.5 C2.9,46 4,47.1 5.4,47.7 L73,74.2 C74.3,74.7 75.7,74.7 76.9,74.1 C78.2,73.5 79.1,72.5 79.6,71.3 L94.5,33.2 C95,31.9 95,30.5 94.4,29.3 C93.8,28 92.8,27.1 91.6,26.6 L31,2.9 C30.6,2.5 30,2.4 29.3,2.4 Z" id="Shape" fill="#243038"></path>
                </g>
                <path d="M61.1,86.9 C61,86.9 60.9,86.9 60.7,86.8 L41.4,79.2 C40.9,79 40.6,78.4 40.8,77.9 C41,77.4 41.6,77.1 42.1,77.3 L61.4,84.9 C61.9,85.1 62.2,85.7 62,86.2 C61.8,86.6 61.5,86.9 61.1,86.9 Z" id="Path" fill="#243038"></path>
                <path d="M60.4,95.9 C60.3,95.9 60.2,95.9 60,95.8 L40.7,88.2 C40.2,88 39.9,87.4 40.1,86.9 C40.3,86.4 40.9,86.1 41.4,86.3 L60.7,93.9 C61.2,94.1 61.5,94.7 61.3,95.2 C61.2,95.7 60.8,95.9 60.4,95.9 Z" id="Path" fill="#243038"></path>
                <path d="M60.8,105.3 C60.7,105.3 60.6,105.3 60.4,105.2 L41.1,97.6 C40.6,97.4 40.3,96.8 40.5,96.3 C40.7,95.8 41.3,95.5 41.8,95.7 L61.1,103.3 C61.6,103.5 61.9,104.1 61.7,104.6 C61.6,105.1 61.2,105.3 60.8,105.3 Z" id="Path" fill="#243038"></path>
                <g transform="translate(92.000000, 41.000000)">
                    <rect id="Rectangle" fill="#B9D199" transform="translate(13.824675, 18.814075) rotate(21.389645) translate(-13.824675, -18.814075) " x="7.07483261" y="2.8144486" width="13.4996848" height="31.9992528"></rect>
                    <path d="M14.9,37.5 L0.4,31.8 L12.8,0.1 L27.3,5.8 L14.9,37.5 Z M3,30.7 L13.7,34.9 L24.6,7 L13.9,2.8 L3,30.7 Z" id="Shape" fill="#243038"></path>
                </g>
                <g transform="translate(15.000000, 2.000000)">
                    <rect id="Rectangle" fill="#FFFFFF" transform="translate(16.883240, 28.515580) rotate(21.389645) translate(-16.883240, -28.515580) " x="10.9833778" y="1.91620112" width="11.7997245" height="53.1987578"></rect>
                    <path d="M13.2,56.8 L0.3,51.8 L20.4,0.4 L33.3,5.4 L13.2,56.8 Z M2.9,50.6 L12.1,54.2 L30.8,6.5 L21.6,2.9 L2.9,50.6 Z" id="Shape" fill="#243038"></path>
                </g>
            </g>
            <g id="Group" transform="translate(172.000000, 212.000000)">
                <g transform="translate(3.000000, 66.000000)">
                    <path d="M79.7,32 C75.6,14.2 59.7,1 40.7,1 C21.7,1 5.8,14.2 1.7,32 L79.7,32 Z" id="Path" fill="#798792"></path>
                    <path d="M79.7,33 L1.8,33 C1.5,33 1.2,32.9 1,32.6 C0.8,32.4 0.7,32 0.8,31.8 C5.1,13.1 21.5,0 40.7,0 C59.9,0 76.3,13.1 80.6,31.8 C80.7,32.1 80.6,32.4 80.4,32.6 C80.2,32.8 80,33 79.7,33 Z M3,31 L78.4,31 C73.9,13.9 58.6,2 40.7,2 C22.8,2 7.6,13.8 3,31 Z" id="Shape" fill="#243038"></path>
                </g>
                <g transform="translate(2.000000, 0.000000)">
                    <circle id="Oval" fill="#798792" cx="41.7" cy="41" r="40"></circle>
                    <path d="M41.7,82 C19.1,82 0.7,63.6 0.7,41 C0.7,18.4 19.1,0 41.7,0 C64.3,0 82.7,18.4 82.7,41 C82.7,63.6 64.3,82 41.7,82 Z M41.7,2 C20.2,2 2.7,19.5 2.7,41 C2.7,62.5 20.2,80 41.7,80 C63.2,80 80.7,62.5 80.7,41 C80.7,19.5 63.2,2 41.7,2 Z" id="Shape" fill="#243038"></path>
                </g>
                <rect id="Rectangle" fill="#243038" x="42.7" y="1" width="2" height="80"></rect>
                <g transform="translate(19.000000, 16.000000)">
                    <circle id="Oval" fill="#9AD6F5" cx="24.7" cy="25" r="23.5"></circle>
                    <path d="M24.7,49.5 C11.2,49.5 0.2,38.5 0.2,25 C0.2,11.5 11.2,0.5 24.7,0.5 C38.2,0.5 49.2,11.5 49.2,25 C49.2,38.5 38.2,49.5 24.7,49.5 Z M24.7,2.5 C12.3,2.5 2.2,12.6 2.2,25 C2.2,37.4 12.3,47.5 24.7,47.5 C37.1,47.5 47.2,37.4 47.2,25 C47.2,12.6 37.1,2.5 24.7,2.5 Z" id="Shape" fill="#243038"></path>
                </g>
                <circle id="Oval" fill="#EAF7FC" cx="48.7" cy="32.9" r="7.9"></circle>
                <g transform="translate(0.000000, 96.000000)">
                    <polygon id="Path" fill="#798792" points="85.7 10.6 1.8 10.6 4.8 2 82.7 2"></polygon>
                    <path d="M85.7,11.6 L1.8,11.6 C1.5,11.6 1.2,11.4 1,11.2 C0.8,11 0.8,10.6 0.9,10.3 L3.9,1.6 C4,1.2 4.4,0.9 4.8,0.9 L82.7,0.9 C83.1,0.9 83.5,1.2 83.6,1.6 L86.6,10.3 C86.7,10.6 86.7,10.9 86.5,11.2 C86.3,11.5 86,11.6 85.7,11.6 Z M3.2,9.6 L84.3,9.6 L82,3 L5.5,3 L3.2,9.6 Z" id="Shape" fill="#243038"></path>
                </g>
                <g transform="translate(58.000000, 81.000000)">
                    <circle id="Oval" fill="#F1070F" cx="6.6" cy="6.9" r="5"></circle>
                    <path d="M6.6,12.9 C3.3,12.9 0.6,10.2 0.6,6.9 C0.6,3.6 3.3,0.9 6.6,0.9 C9.9,0.9 12.6,3.6 12.6,6.9 C12.6,10.2 9.9,12.9 6.6,12.9 Z M6.6,2.9 C4.4,2.9 2.6,4.7 2.6,6.9 C2.6,9.1 4.4,10.9 6.6,10.9 C8.8,10.9 10.6,9.1 10.6,6.9 C10.6,4.7 8.8,2.9 6.6,2.9 Z" id="Shape" fill="#243038"></path>
                </g>
            </g>
        </g>
    </g>
</svg>