<svg width="36" height="36" viewBox="0 0 36 36" fill="none" xmlns="http://www.w3.org/2000/svg">
  <path fill-rule="evenodd" clip-rule="evenodd" d="M21.1739 23.3088H14.329V29.8184C15.5687 30.2524 16.4579 31.4325 16.4579 32.8204C16.4579 34.5764 15.0343 36 13.2782 36C11.5221 36 10.0986 34.5764 10.0986 32.8204C10.0986 31.4325 10.9877 30.2524 12.2274 29.8184V23.3088H9.91229L9.91292 27.0234C9.91292 28.4689 8.7411 29.6407 7.29558 29.6407L6.18676 29.6398C5.75713 30.8873 4.57306 31.7836 3.17965 31.7836C1.42358 31.7836 0 30.36 0 28.604C0 26.8479 1.42358 25.4243 3.17965 25.4243C4.56166 25.4243 5.73773 26.306 6.17606 27.5376H7.32849C7.59477 27.5376 7.81063 27.3217 7.81063 27.0554V23.3088H3.18965C2.58101 23.3088 2.08761 22.8154 2.08761 22.2068V1.10204C2.08761 0.4934 2.58101 0 3.18965 0H32.29C32.8987 0 33.3921 0.4934 33.3921 1.10204V22.2068C33.3921 22.8154 32.8987 23.3088 32.29 23.3088H27.6911V27.0554C27.6911 27.3217 27.9069 27.5376 28.1732 27.5376H29.3256C29.764 26.306 30.94 25.4243 32.322 25.4243C34.0781 25.4243 35.5017 26.8479 35.5017 28.604C35.5017 30.36 34.0781 31.7836 32.322 31.7836C30.9286 31.7836 29.7446 30.8873 29.3149 29.6398L28.2068 29.6407C26.7606 29.6407 25.5888 28.4689 25.5888 27.0234L25.5894 23.3088H23.2756V29.8184C24.5153 30.2524 25.4044 31.4325 25.4044 32.8204C25.4044 34.5764 23.9808 36 22.2247 36C20.4687 36 19.0451 34.5764 19.0451 32.8204C19.0451 31.4325 19.9342 30.2524 21.1739 29.8184V23.3088ZM22.2501 33.8634C22.8261 33.8634 23.2931 33.3964 23.2931 32.8204C23.2931 32.2443 22.8261 31.7773 22.2501 31.7773C21.674 31.7773 21.207 32.2443 21.207 32.8204C21.207 33.3964 21.674 33.8634 22.2501 33.8634ZM13.3035 33.8634C13.8796 33.8634 14.3466 33.3964 14.3466 32.8204C14.3466 32.2443 13.8796 31.7773 13.3035 31.7773C12.7275 31.7773 12.2605 32.2443 12.2605 32.8204C12.2605 33.3964 12.7275 33.8634 13.3035 33.8634ZM32.3474 29.647C32.9234 29.647 33.3904 29.18 33.3904 28.604C33.3904 28.0279 32.9234 27.5609 32.3474 27.5609C31.7713 27.5609 31.3043 28.0279 31.3043 28.604C31.3043 29.18 31.7713 29.647 32.3474 29.647ZM3.15434 29.647C3.73039 29.647 4.19738 29.18 4.19738 28.604C4.19738 28.0279 3.73039 27.5609 3.15434 27.5609C2.57828 27.5609 2.1113 28.0279 2.1113 28.604C2.1113 29.18 2.57828 29.647 3.15434 29.647ZM16.6509 6.53747L20.7765 9.00865C21.011 9.18053 21.15 9.45633 21.15 9.75C21.15 10.0437 21.011 10.3195 20.7765 10.4914L16.6509 12.9625C16.3724 13.1258 16.0293 13.1259 15.7507 12.9628C15.4721 12.7997 15.3004 12.4982 15.3 12.1718V7.32824C15.3004 7.00177 15.4721 6.70027 15.7507 6.5372C16.0293 6.37413 16.3724 6.37423 16.6509 6.53747ZM31.3913 17.5V2.55103C31.3913 2.24671 31.1446 2.00001 30.8403 2.00001H4.63942C4.3351 2.00001 4.0884 2.24671 4.0884 2.55103V17.5H31.3913ZM31.3913 19.5H4.0884V20.7581C4.0884 21.0624 4.3351 21.3091 4.63942 21.3091H30.8403C31.1446 21.3091 31.3913 21.0624 31.3913 20.7581V19.5Z" fill="#2D3B45"/>
  <mask id="mask0_6231_36203" style="mask-type:luminance" maskUnits="userSpaceOnUse" x="0" y="0" width="36" height="36">
    <path fill-rule="evenodd" clip-rule="evenodd" d="M21.1739 23.3088H14.329V29.8184C15.5687 30.2524 16.4579 31.4325 16.4579 32.8204C16.4579 34.5764 15.0343 36 13.2782 36C11.5221 36 10.0986 34.5764 10.0986 32.8204C10.0986 31.4325 10.9877 30.2524 12.2274 29.8184V23.3088H9.91229L9.91292 27.0234C9.91292 28.4689 8.7411 29.6407 7.29558 29.6407L6.18676 29.6398C5.75713 30.8873 4.57306 31.7836 3.17965 31.7836C1.42358 31.7836 0 30.36 0 28.604C0 26.8479 1.42358 25.4243 3.17965 25.4243C4.56166 25.4243 5.73773 26.306 6.17606 27.5376H7.32849C7.59477 27.5376 7.81063 27.3217 7.81063 27.0554V23.3088H3.18965C2.58101 23.3088 2.08761 22.8154 2.08761 22.2068V1.10204C2.08761 0.4934 2.58101 0 3.18965 0H32.29C32.8987 0 33.3921 0.4934 33.3921 1.10204V22.2068C33.3921 22.8154 32.8987 23.3088 32.29 23.3088H27.6911V27.0554C27.6911 27.3217 27.9069 27.5376 28.1732 27.5376H29.3256C29.764 26.306 30.94 25.4243 32.322 25.4243C34.0781 25.4243 35.5017 26.8479 35.5017 28.604C35.5017 30.36 34.0781 31.7836 32.322 31.7836C30.9286 31.7836 29.7446 30.8873 29.3149 29.6398L28.2068 29.6407C26.7606 29.6407 25.5888 28.4689 25.5888 27.0234L25.5894 23.3088H23.2756V29.8184C24.5153 30.2524 25.4044 31.4325 25.4044 32.8204C25.4044 34.5764 23.9808 36 22.2247 36C20.4687 36 19.0451 34.5764 19.0451 32.8204C19.0451 31.4325 19.9342 30.2524 21.1739 29.8184V23.3088ZM22.2501 33.8634C22.8261 33.8634 23.2931 33.3964 23.2931 32.8204C23.2931 32.2443 22.8261 31.7773 22.2501 31.7773C21.674 31.7773 21.207 32.2443 21.207 32.8204C21.207 33.3964 21.674 33.8634 22.2501 33.8634ZM13.3035 33.8634C13.8796 33.8634 14.3466 33.3964 14.3466 32.8204C14.3466 32.2443 13.8796 31.7773 13.3035 31.7773C12.7275 31.7773 12.2605 32.2443 12.2605 32.8204C12.2605 33.3964 12.7275 33.8634 13.3035 33.8634ZM32.3474 29.647C32.9234 29.647 33.3904 29.18 33.3904 28.604C33.3904 28.0279 32.9234 27.5609 32.3474 27.5609C31.7713 27.5609 31.3043 28.0279 31.3043 28.604C31.3043 29.18 31.7713 29.647 32.3474 29.647ZM3.15434 29.647C3.73039 29.647 4.19738 29.18 4.19738 28.604C4.19738 28.0279 3.73039 27.5609 3.15434 27.5609C2.57828 27.5609 2.1113 28.0279 2.1113 28.604C2.1113 29.18 2.57828 29.647 3.15434 29.647ZM16.6509 6.53747L20.7765 9.00865C21.011 9.18053 21.15 9.45633 21.15 9.75C21.15 10.0437 21.011 10.3195 20.7765 10.4914L16.6509 12.9625C16.3724 13.1258 16.0293 13.1259 15.7507 12.9628C15.4721 12.7997 15.3004 12.4982 15.3 12.1718V7.32824C15.3004 7.00177 15.4721 6.70027 15.7507 6.5372C16.0293 6.37413 16.3724 6.37423 16.6509 6.53747ZM31.3913 17.5V2.55103C31.3913 2.24671 31.1446 2.00001 30.8403 2.00001H4.63942C4.3351 2.00001 4.0884 2.24671 4.0884 2.55103V17.5H31.3913ZM31.3913 19.5H4.0884V20.7581C4.0884 21.0624 4.3351 21.3091 4.63942 21.3091H30.8403C31.1446 21.3091 31.3913 21.0624 31.3913 20.7581V19.5Z" fill="white"/>
  </mask>
<g mask="url(#mask0_6231_36203)"></g>
</svg>
